<svg width="55" height="47" viewBox="0 0 55 47" fill="none" xmlns="http://www.w3.org/2000/svg">
<path d="M45.7188 41.125C40.9444 41.125 36.2274 40.2359 31.5677 38.4578C26.908 36.6796 22.6684 34.1579 18.849 30.8927C15.0295 27.6275 12.0794 24.0046 9.99854 20.024C7.91771 16.0433 6.87653 12.0124 6.875 7.93125C6.875 7.34375 7.10417 6.85417 7.5625 6.4625C8.02083 6.07083 8.59375 5.875 9.28125 5.875H18.5625C19.0972 5.875 19.5747 6.03036 19.9948 6.34108C20.4149 6.65181 20.6632 7.01867 20.7396 7.44167L22.2292 14.2958C22.3056 14.8181 22.2865 15.2587 22.1719 15.6177C22.0573 15.9767 21.8472 16.2868 21.5417 16.5479L15.9844 21.3458C16.7483 22.5535 17.655 23.72 18.7046 24.8454C19.7542 25.9708 20.9099 27.0563 22.1719 28.1021C23.3559 29.1139 24.5972 30.0526 25.8958 30.9182C27.1944 31.7838 28.5694 32.5749 30.0208 33.2917L35.4062 28.6896C35.75 28.3958 36.1992 28.1758 36.7538 28.0296C37.3083 27.8834 37.8522 27.8423 38.3854 27.9062L46.2917 29.2771C46.8264 29.4076 47.2656 29.6446 47.6094 29.988C47.9531 30.3313 48.125 30.7145 48.125 31.1375V39.0688C48.125 39.6563 47.8958 40.1458 47.4375 40.5375C46.9792 40.9292 46.4063 41.125 45.7188 41.125ZM13.8073 17.625L17.5885 14.3938L16.6146 9.79167H11.5156C11.7066 11.1299 11.974 12.4517 12.3177 13.7573C12.6615 15.0628 13.158 16.3521 13.8073 17.625ZM34.3177 35.1521C35.8073 35.7069 37.3259 36.1476 38.8735 36.474C40.4212 36.8003 41.9772 37.0125 43.5417 37.1104V32.8021L38.1562 31.8719L34.3177 35.1521Z" fill="#933C24"/>
</svg>
